<svg width="16" height="17" viewBox="0 0 16 17" fill="none" xmlns="http://www.w3.org/2000/svg">
<path d="M14.4969 0.87854H0.992004C0.525242 0.87854 0.147949 1.25583 0.147949 1.72259V15.2275C0.147949 15.6942 0.525242 16.0715 0.992004 16.0715H14.4969C14.9636 16.0715 15.3409 15.6942 15.3409 15.2275V1.72259C15.3409 1.25583 14.9636 0.87854 14.4969 0.87854ZM4.99873 10.7928C3.7183 10.7928 2.6818 9.75546 2.6818 8.47503C2.6818 7.1946 3.71914 6.15726 4.99873 6.15726C6.28085 6.15726 7.31735 7.1946 7.31735 8.47503C7.31735 9.75631 6.28085 10.7928 4.99873 10.7928ZM10.4902 10.7928C9.20972 10.7928 8.17153 9.75546 8.17153 8.47503C8.17153 7.1946 9.20972 6.15726 10.4902 6.15726C11.7706 6.15726 12.8071 7.1946 12.8071 8.47503C12.8071 9.75631 11.7706 10.7928 10.4902 10.7928Z" fill="white" fill-opacity="0.45"/>
</svg>
