<svg width="16" height="17" viewBox="0 0 16 17" fill="none" xmlns="http://www.w3.org/2000/svg">
<path d="M7.8948 2.24626C9.92449 2.24626 10.1648 2.25516 10.9631 2.29077C11.7049 2.32341 12.1055 2.44804 12.3726 2.5519C12.7257 2.6884 12.9809 2.85457 13.245 3.11867C13.512 3.38573 13.6753 3.63796 13.8118 3.99108C13.9156 4.25814 14.0402 4.6617 14.0729 5.40058C14.1085 6.20177 14.1174 6.44213 14.1174 8.46885C14.1174 10.4985 14.1085 10.7389 14.0729 11.5371C14.0402 12.279 13.9156 12.6796 13.8118 12.9466C13.6753 13.2997 13.5091 13.5549 13.245 13.819C12.9779 14.0861 12.7257 14.2493 12.3726 14.3858C12.1055 14.4897 11.7019 14.6143 10.9631 14.6469C10.1619 14.6825 9.92152 14.6914 7.8948 14.6914C5.86511 14.6914 5.62476 14.6825 4.82653 14.6469C4.08469 14.6143 3.68409 14.4897 3.41703 14.3858C3.06391 14.2493 2.80871 14.0831 2.54462 13.819C2.27755 13.552 2.11435 13.2997 1.97785 12.9466C1.87399 12.6796 1.74936 12.276 1.71672 11.5371C1.68111 10.7359 1.67221 10.4956 1.67221 8.46885C1.67221 6.43917 1.68111 6.19881 1.71672 5.40058C1.74936 4.65874 1.87399 4.25814 1.97785 3.99108C2.11435 3.63796 2.28052 3.38276 2.54462 3.11867C2.81168 2.8516 3.06391 2.6884 3.41703 2.5519C3.68409 2.44804 4.08765 2.32341 4.82653 2.29077C5.62476 2.25516 5.86511 2.24626 7.8948 2.24626ZM7.8948 0.878296C5.83247 0.878296 5.57431 0.887198 4.76422 0.922807C3.95709 0.958415 3.40219 1.08898 2.92147 1.27592C2.41999 1.47177 1.99565 1.72993 1.57428 2.15427C1.14995 2.57564 0.891785 2.99997 0.695938 3.49849C0.508993 3.98218 0.378429 4.53411 0.34282 5.34123C0.307211 6.1543 0.298309 6.41246 0.298309 8.47479C0.298309 10.5371 0.307211 10.7953 0.34282 11.6054C0.378429 12.4125 0.508993 12.9674 0.695938 13.4481C0.891785 13.9496 1.14995 14.3739 1.57428 14.7953C1.99565 15.2167 2.41999 15.4778 2.91851 15.6707C3.40219 15.8576 3.95412 15.9882 4.76125 16.0238C5.57134 16.0594 5.8295 16.0683 7.89183 16.0683C9.95416 16.0683 10.2123 16.0594 11.0224 16.0238C11.8295 15.9882 12.3844 15.8576 12.8652 15.6707C13.3637 15.4778 13.788 15.2167 14.2094 14.7953C14.6308 14.3739 14.8919 13.9496 15.0848 13.4511C15.2717 12.9674 15.4023 12.4155 15.4379 11.6083C15.4735 10.7982 15.4824 10.5401 15.4824 8.47776C15.4824 6.41543 15.4735 6.15726 15.4379 5.34717C15.4023 4.54004 15.2717 3.98514 15.0848 3.50443C14.8978 2.99997 14.6397 2.57564 14.2153 2.15427C13.794 1.7329 13.3696 1.47177 12.8711 1.27889C12.3874 1.09195 11.8355 0.961383 11.0284 0.925774C10.2153 0.887198 9.95713 0.878296 7.8948 0.878296Z" fill="white" fill-opacity="0.45"/>
<path d="M7.89835 4.57275C5.74403 4.57275 3.99625 6.32054 3.99625 8.47486C3.99625 10.6292 5.74403 12.377 7.89835 12.377C10.0527 12.377 11.8005 10.6292 11.8005 8.47486C11.8005 6.32054 10.0527 4.57275 7.89835 4.57275ZM7.89835 11.006C6.50071 11.006 5.36718 9.87249 5.36718 8.47486C5.36718 7.07722 6.50071 5.94368 7.89835 5.94368C9.29599 5.94368 10.4295 7.07722 10.4295 8.47486C10.4295 9.87249 9.29599 11.006 7.89835 11.006Z" fill="white" fill-opacity="0.45"/>
<path d="M12.8612 4.41733C12.8612 4.92179 12.4517 5.32832 11.9503 5.32832C11.4458 5.32832 11.0393 4.91882 11.0393 4.41733C11.0393 3.91288 11.4488 3.50635 11.9503 3.50635C12.4517 3.50635 12.8612 3.91585 12.8612 4.41733Z" fill="white" fill-opacity="0.45"/>
</svg>
