<svg width="16" height="17" viewBox="0 0 16 17" fill="none" xmlns="http://www.w3.org/2000/svg">
<path d="M14.4143 0.878418H1.46762C0.847434 0.878418 0.345947 1.36804 0.345947 1.97338V14.9735C0.345947 15.5788 0.847434 16.0714 1.46762 16.0714H14.4143C15.0345 16.0714 15.5389 15.5788 15.5389 14.9764V1.97338C15.5389 1.36804 15.0345 0.878418 14.4143 0.878418ZM4.8534 13.8251H2.59819V6.57282H4.8534V13.8251ZM3.72579 5.58468C3.00175 5.58468 2.41718 5.00011 2.41718 4.27903C2.41718 3.55796 3.00175 2.97339 3.72579 2.97339C4.44687 2.97339 5.03144 3.55796 5.03144 4.27903C5.03144 4.99714 4.44687 5.58468 3.72579 5.58468ZM13.2926 13.8251H11.0404V10.2998C11.0404 9.46008 11.0255 8.37699 9.86827 8.37699C8.69615 8.37699 8.51811 9.29391 8.51811 10.2405V13.8251H6.26884V6.57282H8.42909V7.56392H8.45876C8.75847 6.99419 9.49438 6.39181 10.5893 6.39181C12.8713 6.39181 13.2926 7.8933 13.2926 9.84584V13.8251Z" fill="white" fill-opacity="0.45"/>
</svg>
