<svg width="15" height="13" viewBox="0 0 15 13" fill="none" xmlns="http://www.w3.org/2000/svg">
<path d="M4.62912 12.6465C10.0027 12.6465 12.9426 7.89663 12.9426 3.77879C12.9426 3.64526 12.9398 3.50876 12.9343 3.37523C13.5062 2.93406 13.9997 2.38762 14.3917 1.76157C13.8591 2.01434 13.2936 2.17943 12.7145 2.25119C13.3242 1.86134 13.7807 1.24892 13.9995 0.527436C13.4259 0.890036 12.7986 1.14582 12.1445 1.28382C11.7038 0.784321 11.1211 0.453592 10.4864 0.342768C9.85184 0.231945 9.20069 0.347199 8.63365 0.670712C8.06661 0.994225 7.61528 1.50798 7.34943 2.13254C7.08358 2.7571 7.01802 3.45769 7.16289 4.12598C6.00144 4.06381 4.86519 3.74198 3.82782 3.18135C2.79046 2.62073 1.87512 1.83382 1.14115 0.871652C0.768111 1.5577 0.65396 2.36951 0.821898 3.1421C0.989837 3.91469 1.42726 4.59009 2.04527 5.03103C1.58131 5.01532 1.12751 4.88207 0.72136 4.6423V4.68088C0.720944 5.40083 0.954283 6.09872 1.38171 6.65591C1.80914 7.2131 2.40428 7.59521 3.06596 7.73728C2.63617 7.86271 2.18508 7.88099 1.74761 7.79069C1.93432 8.40985 2.2976 8.95139 2.78674 9.33972C3.27588 9.72806 3.86648 9.94381 4.47612 9.95688C3.44114 10.8241 2.16265 11.2944 0.846546 11.2922C0.613147 11.2918 0.379977 11.2766 0.148285 11.2465C1.4853 12.1615 3.04061 12.6474 4.62912 12.6465Z" fill="white" fill-opacity="0.45"/>
</svg>
