<svg width="16" height="11" viewBox="0 0 16 11" fill="none" xmlns="http://www.w3.org/2000/svg">
<path d="M15.4417 2.43627C15.4417 2.43627 15.2934 1.38878 14.8364 0.92884C14.2577 0.323495 13.6109 0.320527 13.3141 0.284919C11.1895 0.130615 7.99955 0.130615 7.99955 0.130615H7.99361C7.99361 0.130615 4.80368 0.130615 2.67903 0.284919C2.3823 0.320527 1.73541 0.323495 1.15677 0.92884C0.699791 1.38878 0.554389 2.43627 0.554389 2.43627C0.554389 2.43627 0.400085 3.66773 0.400085 4.89623V6.04757C0.400085 7.27606 0.551422 8.50753 0.551422 8.50753C0.551422 8.50753 0.699791 9.55501 1.1538 10.015C1.73244 10.6203 2.49209 10.5995 2.83037 10.6648C4.04699 10.7805 7.99658 10.8161 7.99658 10.8161C7.99658 10.8161 11.1895 10.8102 13.3141 10.6589C13.6109 10.6233 14.2577 10.6203 14.8364 10.015C15.2934 9.55501 15.4417 8.50753 15.4417 8.50753C15.4417 8.50753 15.5931 7.27903 15.5931 6.04757V4.89623C15.5931 3.66773 15.4417 2.43627 15.4417 2.43627ZM6.42683 7.44521V3.17515L10.5307 5.31759L6.42683 7.44521Z" fill="white" fill-opacity="0.45"/>
</svg>
